<svg xmlns="http://www.w3.org/2000/svg" width="150" height="96" viewBox="0 0 150 96"><g fill="none" stroke="#333" stroke-width="3" stroke-miterlimit="10"><path stroke-linejoin="round" d="M17.198 1.76H39.78V94.24H17.2zM39.78 24.646h25.106v69.592H39.78zM77.107 30.354h9.854v63.884h-9.853z"/><path stroke-linecap="round" stroke-linejoin="round" d="M63.922 33.68H40.19M120.604 74.506H86.96M63.498 40.453h-23.73M64.41 78.434H40.68M63.988 85.207h-23.73"/><path stroke-linejoin="round" d="M86.96 14.93h33.643v79.308H86.96zM136.987 94.095l-14.45-66.908 11.492-2.397 14.45 66.907z"/><path stroke-linecap="round" stroke-linejoin="round" d="M134.71 31.583l-10.67 2.22M147.163 85.862l-10.677 2.22M119.12 35.037H87.89"/><path stroke-linejoin="round" d="M64.887 34.884H76.74v59.354H64.888z"/><path d="M36.27 11.44H20.782M36.27 20.013H20.782"/><path stroke-linejoin="round" d="M1.52 29.625H17.2v64.613H1.52z"/><path stroke-linecap="round" stroke-linejoin="round" d="M16.164 44.302H1.614M16.723 79.564H2.173"/></g></svg>