<svg xmlns="http://www.w3.org/2000/svg" width="149.961" height="95.477" viewBox="0 0 149.961 95.477"><g fill="none" stroke="#333" stroke-width="3" stroke-linejoin="round" stroke-miterlimit="10"><path d="M17.18 1.5H39.76v92.477H17.18zM39.762 24.385h25.105v69.592H39.762zM77.088 30.093h9.854v63.884h-9.854z"/><path stroke-linecap="round" d="M63.902 33.417h-23.73M120.584 74.245H86.94M63.48 40.192H39.746M64.392 78.172H40.66M63.97 84.946H40.236"/><path d="M86.94 14.67h33.643v79.307H86.94zM136.968 93.833l-14.45-66.907 11.492-2.398 14.45 66.908z"/><path stroke-linecap="round" d="M134.69 31.32l-10.67 2.222M147.144 85.6l-10.677 2.222M119.1 34.775H87.87"/><path d="M64.867 34.623H76.72v59.354H64.868z"/><path stroke-linecap="round" d="M34.47 11.18h-12M34.47 19.75h-12"/><path d="M1.5 29.364h15.68v64.613H1.5z"/><path stroke-linecap="round" d="M16.145 44.04H1.595M16.703 79.303H2.153"/></g></svg>